TITLE ""
FILE "DISC2Track31.mp3" MP3
  TRACK 01 AUDIO
    TITLE "DISC2Track31_01"
    INDEX 01 00:00:00
  TRACK 02 AUDIO
    TITLE "DISC2Track31_02"
    INDEX 01 00:02:05
  TRACK 03 AUDIO
    TITLE "DISC2Track31_03"
    INDEX 01 00:02:21
  TRACK 04 AUDIO
    TITLE "DISC2Track31_04"
    INDEX 01 00:06:31
  TRACK 05 AUDIO
    TITLE "DISC2Track31_05"
    INDEX 01 00:09:60
  TRACK 06 AUDIO
    TITLE "DISC2Track31_06"
    INDEX 01 00:12:59
  TRACK 07 AUDIO
    TITLE "DISC2Track31_07"
    INDEX 01 00:12:74
  TRACK 08 AUDIO
    TITLE "DISC2Track31_08"
    INDEX 01 00:16:15
  TRACK 09 AUDIO
    TITLE "DISC2Track31_09"
    INDEX 01 00:20:33
  TRACK 10 AUDIO
    TITLE "DISC2Track31_10"
    INDEX 01 00:24:25
  TRACK 11 AUDIO
    TITLE "DISC2Track31_11"
    INDEX 01 00:24:38
  TRACK 12 AUDIO
    TITLE "DISC2Track31_12"
    INDEX 01 00:27:72
  TRACK 13 AUDIO
    TITLE "DISC2Track31_13"
    INDEX 01 00:30:74
  TRACK 14 AUDIO
    TITLE "DISC2Track31_14"
    INDEX 01 00:33:39
  TRACK 15 AUDIO
    TITLE "DISC2Track31_15"
    INDEX 01 00:33:63
  TRACK 16 AUDIO
    TITLE "DISC2Track31_16"
    INDEX 01 00:35:34
  TRACK 17 AUDIO
    TITLE "DISC2Track31_17"
    INDEX 01 00:37:55
  TRACK 18 AUDIO
    TITLE "DISC2Track31_18"
    INDEX 01 00:39:32
  TRACK 19 AUDIO
    TITLE "DISC2Track31_19"
    INDEX 01 00:39:51
  TRACK 20 AUDIO
    TITLE "DISC2Track31_20"
    INDEX 01 00:43:65
  TRACK 21 AUDIO
    TITLE "DISC2Track31_21"
    INDEX 01 00:47:31
  TRACK 22 AUDIO
    TITLE "DISC2Track31_22"
    INDEX 01 00:50:47
  TRACK 23 AUDIO
    TITLE "DISC2Track31_23"
    INDEX 01 00:50:65
  TRACK 24 AUDIO
    TITLE "DISC2Track31_24"
    INDEX 01 00:56:25
  TRACK 25 AUDIO
    TITLE "DISC2Track31_25"
    INDEX 01 01:01:51
  TRACK 26 AUDIO
    TITLE "DISC2Track31_26"
    INDEX 01 01:06:48
  TRACK 27 AUDIO
    TITLE "DISC2Track31_27"
    INDEX 01 01:06:62
  TRACK 28 AUDIO
    TITLE "DISC2Track31_28"
    INDEX 01 01:11:12
  TRACK 29 AUDIO
    TITLE "DISC2Track31_29"
    INDEX 01 01:14:66
  TRACK 30 AUDIO
    TITLE "DISC2Track31_30"
    INDEX 01 01:18:03
  TRACK 31 AUDIO
    TITLE "DISC2Track31_31"
    INDEX 01 01:18:22
  TRACK 32 AUDIO
    TITLE "DISC2Track31_32"
    INDEX 01 01:22:49
  TRACK 33 AUDIO
    TITLE "DISC2Track31_33"
    INDEX 01 01:27:07
  TRACK 34 AUDIO
    TITLE "DISC2Track31_34"
    INDEX 01 01:30:74
  TRACK 35 AUDIO
    TITLE "DISC2Track31_35"
    INDEX 01 01:31:19
  TRACK 36 AUDIO
    TITLE "DISC2Track31_36"
    INDEX 01 01:35:32
  TRACK 37 AUDIO
    TITLE "DISC2Track31_37"
    INDEX 01 01:39:15
  TRACK 38 AUDIO
    TITLE "DISC2Track31_38"
    INDEX 01 01:42:32
  TRACK 39 AUDIO
    TITLE "DISC2Track31_39"
    INDEX 01 01:42:50
  TRACK 40 AUDIO
    TITLE "DISC2Track31_40"
    INDEX 01 01:45:60
  TRACK 41 AUDIO
    TITLE "DISC2Track31_41"
    INDEX 01 01:48:29
  TRACK 42 AUDIO
    TITLE "DISC2Track31_42"
    INDEX 01 01:50:42
  TRACK 43 AUDIO
    TITLE "DISC2Track31_43"
    INDEX 01 01:50:57
  TRACK 44 AUDIO
    TITLE "DISC2Track31_44"
    INDEX 01 01:55:16
  TRACK 45 AUDIO
    TITLE "DISC2Track31_45"
    INDEX 01 01:59:04
  TRACK 46 AUDIO
    TITLE "DISC2Track31_46"
    INDEX 01 02:02:35
